# Blender v2.61 (sub 0) OBJ File: 'flashlight.blend'
# www.blender.org
mtllib flashlight.mtl
o Cube
v -0.630094 -0.630094 0.883474
v -0.500000 -0.500000 -5.942159
v 0.500000 -0.500000 -5.942159
v 0.630094 -0.630094 0.883475
v -0.630095 0.630094 0.883474
v -0.500000 0.500000 -5.942160
v 0.500000 0.500000 -5.942159
v 0.630094 0.630094 0.883474
v -0.500000 -0.500000 -0.557058
v 0.500000 -0.500000 -0.557057
v -0.500000 0.500000 -0.557058
v 0.500000 0.500000 -0.557058
v -0.489648 -0.489648 1.027158
v -0.384530 -0.384530 -5.826689
v 0.384530 -0.384530 -5.826689
v 0.489648 -0.489648 1.027158
v -0.489649 0.489648 1.027157
v -0.384530 0.384530 -5.826690
v 0.384530 0.384530 -5.826689
v 0.489648 0.489648 1.027158
v -0.358840 -0.358840 -0.545015
v 0.358840 -0.358840 -0.545015
v -0.358840 0.358840 -0.545016
v 0.358840 0.358840 -0.545015
vn 0.000000 -0.000000 -1.000000
vn 0.000000 -0.995947 -0.089944
vn -0.000000 -1.000000 0.000000
vn 0.000000 0.995947 -0.089944
vn -0.000000 1.000000 0.000000
vn -0.995947 -0.000000 -0.089944
vn -1.000000 0.000000 -0.000000
vn 1.000000 -0.000000 0.000000
vn 0.995947 -0.000000 -0.089944
vn -0.000001 0.000001 1.000000
vn -0.000000 0.996557 0.082916
vn 0.000000 0.999988 -0.004864
vn -0.000000 -0.996557 0.082916
vn 0.000000 -0.999988 -0.004864
vn 0.996557 0.000000 0.082916
vn 0.999988 -0.000000 -0.004864
vn -0.999988 0.000000 -0.004864
vn -0.996557 0.000000 0.082916
vn -0.000000 0.715116 0.699006
vn -0.715116 0.000000 0.699005
vn -0.000000 -0.715116 0.699006
vn 0.715116 0.000000 0.699005
usemtl Material
s off
f 2//1 6//1 7//1
f 2//1 7//1 3//1
f 1//2 9//2 10//2
f 1//2 10//2 4//2
f 9//3 2//3 3//3
f 9//3 3//3 10//3
f 8//4 12//4 11//4
f 8//4 11//4 5//4
f 12//5 7//5 6//5
f 12//5 6//5 11//5
f 9//6 1//6 5//6
f 9//6 5//6 11//6
f 11//7 6//7 2//7
f 11//7 2//7 9//7
f 7//8 12//8 10//8
f 7//8 10//8 3//8
f 12//9 8//9 4//9
f 12//9 4//9 10//9
f 19//10 18//10 14//10
f 19//10 14//10 15//10
f 22//11 21//11 13//11
f 22//11 13//11 16//11
f 15//12 14//12 21//12
f 15//12 21//12 22//12
f 23//13 24//13 20//13
f 23//13 20//13 17//13
f 18//14 19//14 24//14
f 18//14 24//14 23//14
f 17//15 13//15 21//15
f 17//15 21//15 23//15
f 14//16 18//16 23//16
f 14//16 23//16 21//16
f 22//17 24//17 19//17
f 22//17 19//17 15//17
f 16//18 20//18 24//18
f 16//18 24//18 22//18
f 8//19 5//19 17//19
f 8//19 17//19 20//19
f 5//20 1//20 13//20
f 5//20 13//20 17//20
f 1//21 4//21 16//21
f 1//21 16//21 13//21
f 4//22 8//22 20//22
f 4//22 20//22 16//22
